{
  "accessors": [
    {
      "bufferView": 2,
      "componentType": 5126,
      "count": 316,
      "max": [
        12.517643928527832,
        -1.8966495990753174,
        -0.02986159920692444
      ],
      "min": [
        9.592083930969238,
        -5.269360542297363,
        -4.094301223754883
      ],
      "type": "VEC3"
    },
    {
      "bufferView": 2,
      "byteOffset": 3792,
      "componentType": 5126,
      "count": 316,
      "max": [
        1.0,
        0.9999988675117493,
        0.9999973773956299
      ],
      "min": [
        -1.0,
        -0.9999988675117493,
        -0.9999973773956299
      ],
      "type": "VEC3"
    },
    {
      "bufferView": 1,
      "componentType": 5126,
      "count": 316,
      "max": [
        0.875,
        1.0
      ],
      "min": [
        0.125,
        0.0
      ],
      "type": "VEC2"
    },
    {
      "bufferView": 0,
      "componentType": 5125,
      "count": 474,
      "type": "SCALAR"
    },
    {
      "bufferView": 2,
      "byteOffset": 7584,
      "componentType": 5126,
      "count": 594,
      "max": [
        12.569658279418945,
        -1.831577181816101,
        -0.10049867630004883
      ],
      "min": [
        9.540068626403809,
        -5.312312126159668,
        -4.015531539916992
      ],
      "type": "VEC3"
    },
    {
      "bufferView": 2,
      "byteOffset": 14712,
      "componentType": 5126,
      "count": 594,
      "max": [
        1.0,
        0.9999973773956299,
        0.9999973773956299
      ],
      "min": [
        -1.0,
        -0.9999973773956299,
        -0.9999973773956299
      ],
      "type": "VEC3"
    },
    {
      "bufferView": 1,
      "byteOffset": 2528,
      "componentType": 5126,
      "count": 594,
      "max": [
        0.8750000596046448,
        1.0
      ],
      "min": [
        0.125,
        0.0
      ],
      "type": "VEC2"
    },
    {
      "bufferView": 0,
      "byteOffset": 1896,
      "componentType": 5125,
      "count": 984,
      "type": "SCALAR"
    },
    {
      "bufferView": 2,
      "byteOffset": 21840,
      "componentType": 5126,
      "count": 632,
      "max": [
        11.88599967956543,
        -1.9260573387145996,
        -2.7512128353118896
      ],
      "min": [
        9.990240097045898,
        -4.035939693450928,
        -4.071906089782715
      ],
      "type": "VEC3"
    },
    {
      "bufferView": 2,
      "byteOffset": 29424,
      "componentType": 5126,
      "count": 632,
      "max": [
        1.0,
        0.9999973773956299,
        0.9999973773956299
      ],
      "min": [
        -1.0,
        -0.9999973773956299,
        -0.9999973773956299
      ],
      "type": "VEC3"
    },
    {
      "bufferView": 1,
      "byteOffset": 7280,
      "componentType": 5126,
      "count": 632,
      "max": [
        1.0,
        1.0
      ],
      "min": [
        0.0,
        0.0
      ],
      "type": "VEC2"
    },
    {
      "bufferView": 0,
      "byteOffset": 5832,
      "componentType": 5125,
      "count": 744,
      "type": "SCALAR"
    },
    {
      "bufferView": 2,
      "byteOffset": 37008,
      "componentType": 5126,
      "count": 304,
      "max": [
        11.946357727050781,
        -1.9550275802612305,
        -0.5430281162261963
      ],
      "min": [
        10.022965431213379,
        -4.020230293273926,
        -3.580216646194458
      ],
      "type": "VEC3"
    },
    {
      "bufferView": 2,
      "byteOffset": 40656,
      "componentType": 5126,
      "count": 304,
      "max": [
        0.9995548725128174,
        0.9999973773956299,
        0.9999992251396179
      ],
      "min": [
        -1.0,
        -0.9999973773956299,
        -0.9999973773956299
      ],
      "type": "VEC3"
    },
    {
      "bufferView": 1,
      "byteOffset": 12336,
      "componentType": 5126,
      "count": 304,
      "max": [
        0.875,
        1.0
      ],
      "min": [
        0.125,
        0.0
      ],
      "type": "VEC2"
    },
    {
      "bufferView": 0,
      "byteOffset": 8808,
      "componentType": 5125,
      "count": 462,
      "type": "SCALAR"
    },
    {
      "bufferView": 2,
      "byteOffset": 44304,
      "componentType": 5126,
      "count": 148,
      "max": [
        11.818187713623047,
        -2.1365745067596436,
        -0.8012027740478516
      ],
      "min": [
        10.213410377502441,
        -3.991676092147827,
        -3.4284937381744385
      ],
      "type": "VEC3"
    },
    {
      "bufferView": 2,
      "byteOffset": 46080,
      "componentType": 5126,
      "count": 148,
      "max": [
        0.9999715089797974,
        0.048125073313713074,
        0.9999966025352478
      ],
      "min": [
        -0.9992976188659668,
        -0.9999974966049194,
        -0.9994000792503357
      ],
      "type": "VEC3"
    },
    {
      "bufferView": 1,
      "byteOffset": 14768,
      "componentType": 5126,
      "count": 148,
      "max": [
        0.875,
        0.9375000596046448
      ],
      "min": [
        0.125,
        0.0
      ],
      "type": "VEC2"
    },
    {
      "bufferView": 0,
      "byteOffset": 10656,
      "componentType": 5125,
      "count": 222,
      "type": "SCALAR"
    },
    {
      "bufferView": 2,
      "byteOffset": 47856,
      "componentType": 5126,
      "count": 250,
      "max": [
        11.55077838897705,
        -2.639108180999756,
        -2.9664559364318848
      ],
      "min": [
        10.431894302368164,
        -3.7032275199890137,
        -3.2411766052246094
      ],
      "type": "VEC3"
    },
    {
      "bufferView": 2,
      "byteOffset": 50856,
      "componentType": 5126,
      "count": 250,
      "max": [
        0.9504029750823975,
        0.9993934035301208,
        0.9999973773956299
      ],
      "min": [
        -0.9503989815711975,
        -0.9992213845252991,
        -0.9999973177909851
      ],
      "type": "VEC3"
    },
    {
      "bufferView": 1,
      "byteOffset": 15952,
      "componentType": 5126,
      "count": 250,
      "max": [
        1.0,
        1.0
      ],
      "min": [
        -1.1102230246251565e-16,
        -1.1102230246251565e-16
      ],
      "type": "VEC2"
    },
    {
      "bufferView": 0,
      "byteOffset": 11544,
      "componentType": 5125,
      "count": 384,
      "type": "SCALAR"
    }
  ],
  "asset": {
    "extras": {
      "author": "synistersyrup (https://sketchfab.com/synistersyrup)",
      "license": "CC-BY-4.0 (http://creativecommons.org/licenses/by/4.0/)",
      "source": "https://sketchfab.com/3d-models/chicken-coop-1f72fd7e01bc4b7bbbad102e623548ef",
      "title": "Chicken Coop"
    },
    "generator": "Sketchfab-12.68.0",
    "version": "2.0"
  },
  "bufferViews": [
    {
      "buffer": 0,
      "byteLength": 13080,
      "name": "floatBufferViews",
      "target": 34963
    },
    {
      "buffer": 0,
      "byteLength": 17952,
      "byteOffset": 13080,
      "byteStride": 8,
      "name": "floatBufferViews",
      "target": 34962
    },
    {
      "buffer": 0,
      "byteLength": 53856,
      "byteOffset": 31032,
      "byteStride": 12,
      "name": "floatBufferViews",
      "target": 34962
    }
  ],
  "buffers": [
    {
      "byteLength": 84888,
      "uri": "scene.bin"
    }
  ],
  "materials": [
    {
      "doubleSided": true,
      "name": "light_wood",
      "pbrMetallicRoughness": {
        "baseColorFactor": [
          0.316764,
          0.161824,
          0.0815939,
          1.0
        ],
        "metallicFactor": 0.0,
        "roughnessFactor": 0.9577446587756928
      }
    },
    {
      "doubleSided": true,
      "name": "wood",
      "pbrMetallicRoughness": {
        "baseColorFactor": [
          0.132808,
          0.0834229,
          0.0457457,
          1.0
        ],
        "metallicFactor": 0.0
      }
    },
    {
      "doubleSided": true,
      "name": "eggs",
      "pbrMetallicRoughness": {
        "baseColorFactor": [
          0.8,
          0.8,
          0.8,
          1.0
        ],
        "metallicFactor": 0.0,
        "roughnessFactor": 0.8040408205773457
      }
    },
    {
      "doubleSided": true,
      "name": "Material.007",
      "pbrMetallicRoughness": {
        "baseColorFactor": [
          0.95509,
          0.178599,
          0.114076,
          1.0
        ],
        "metallicFactor": 0.0,
        "roughnessFactor": 0.9241922809567108
      }
    },
    {
      "doubleSided": true,
      "name": "Material.001",
      "pbrMetallicRoughness": {
        "baseColorFactor": [
          0.220255,
          0.0245422,
          0.0426835,
          1.0
        ],
        "metallicFactor": 0.0,
        "roughnessFactor": 0.9849153639739903
      }
    },
    {
      "doubleSided": true,
      "name": "Material.008",
      "pbrMetallicRoughness": {
        "baseColorFactor": [
          1.0,
          0.590331,
          0.325916,
          1.0
        ],
        "metallicFactor": 0.0,
        "roughnessFactor": 0.852791625070338
      }
    }
  ],
  "meshes": [
    {
      "name": "chicken coop_light wood_0",
      "primitives": [
        {
          "attributes": {
            "NORMAL": 1,
            "POSITION": 0,
            "TEXCOORD_0": 2
          },
          "indices": 3,
          "material": 0,
          "mode": 4
        }
      ]
    },
    {
      "name": "chicken coop_wood_0",
      "primitives": [
        {
          "attributes": {
            "NORMAL": 5,
            "POSITION": 4,
            "TEXCOORD_0": 6
          },
          "indices": 7,
          "material": 1,
          "mode": 4
        }
      ]
    },
    {
      "name": "chicken coop_eggs_0",
      "primitives": [
        {
          "attributes": {
            "NORMAL": 9,
            "POSITION": 8,
            "TEXCOORD_0": 10
          },
          "indices": 11,
          "material": 2,
          "mode": 4
        }
      ]
    },
    {
      "name": "chicken coop_Material.007_0",
      "primitives": [
        {
          "attributes": {
            "NORMAL": 13,
            "POSITION": 12,
            "TEXCOORD_0": 14
          },
          "indices": 15,
          "material": 3,
          "mode": 4
        }
      ]
    },
    {
      "name": "chicken coop_Material.001_0",
      "primitives": [
        {
          "attributes": {
            "NORMAL": 17,
            "POSITION": 16,
            "TEXCOORD_0": 18
          },
          "indices": 19,
          "material": 4,
          "mode": 4
        }
      ]
    },
    {
      "name": "chicken coop_Material.008_0",
      "primitives": [
        {
          "attributes": {
            "NORMAL": 21,
            "POSITION": 20,
            "TEXCOORD_0": 22
          },
          "indices": 23,
          "material": 5,
          "mode": 4
        }
      ]
    }
  ],
  "nodes": [
    {
      "children": [
        1
      ],
      "matrix": [
        1.0,
        0.0,
        0.0,
        0.0,
        0.0,
        2.220446049250313e-16,
        -1.0,
        0.0,
        0.0,
        1.0,
        2.220446049250313e-16,
        0.0,
        0.0,
        0.0,
        0.0,
        1.0
      ],
      "name": "Sketchfab_model"
    },
    {
      "children": [
        2
      ],
      "matrix": [
        1.0,
        0.0,
        0.0,
        0.0,
        0.0,
        0.0,
        1.0,
        0.0,
        0.0,
        -1.0,
        0.0,
        0.0,
        0.0,
        0.0,
        0.0,
        1.0
      ],
      "name": "8722ad8060084341a97246a7d0b7a1e9.fbx"
    },
    {
      "children": [
        3
      ],
      "name": "RootNode"
    },
    {
      "children": [
        4,
        5,
        6,
        7,
        8,
        9
      ],
      "matrix": [
        100.0,
        0.0,
        0.0,
        0.0,
        0.0,
        0.2316309922586468,
        -99.9997317350573,
        0.0,
        0.0,
        99.9997317350573,
        0.2316309922586468,
        0.0,
        -1092.2872314453125,
        414.0754699707031,
        -297.1396789550781,
        1.0
      ],
      "name": "chicken coop"
    },
    {
      "mesh": 0,
      "name": "chicken coop_light wood_0"
    },
    {
      "mesh": 1,
      "name": "chicken coop_wood_0"
    },
    {
      "mesh": 2,
      "name": "chicken coop_eggs_0"
    },
    {
      "mesh": 3,
      "name": "chicken coop_Material.007_0"
    },
    {
      "mesh": 4,
      "name": "chicken coop_Material.001_0"
    },
    {
      "mesh": 5,
      "name": "chicken coop_Material.008_0"
    }
  ],
  "scene": 0,
  "scenes": [
    {
      "name": "Sketchfab_Scene",
      "nodes": [
        0
      ]
    }
  ]
}
