{
  "accessors": [
    {
      "bufferView": 2,
      "componentType": 5126,
      "count": 554,
      "max": [
        0.45195508003234863,
        0.4406851828098297,
        0.3348783850669861
      ],
      "min": [
        -0.44476988911628723,
        -0.40443530678749084,
        -0.5512847304344177
      ],
      "type": "VEC3"
    },
    {
      "bufferView": 2,
      "byteOffset": 6648,
      "componentType": 5126,
      "count": 554,
      "max": [
        0.9970633387565613,
        0.9752818942070007,
        1.0
      ],
      "min": [
        -1.0,
        -0.9724790453910828,
        -1.0
      ],
      "type": "VEC3"
    },
    {
      "bufferView": 1,
      "componentType": 5126,
      "count": 554,
      "max": [
        1.0,
        1.0
      ],
      "min": [
        7.450580596923828e-08,
        0.0
      ],
      "type": "VEC2"
    },
    {
      "bufferView": 0,
      "componentType": 5125,
      "count": 888,
      "type": "SCALAR"
    },
    {
      "bufferView": 2,
      "byteOffset": 13296,
      "componentType": 5126,
      "count": 690,
      "max": [
        0.4664633572101593,
        0.4405023753643036,
        0.11990930140018463
      ],
      "min": [
        -0.4395839273929596,
        -0.443526953458786,
        -0.12949222326278687
      ],
      "type": "VEC3"
    },
    {
      "bufferView": 2,
      "byteOffset": 21576,
      "componentType": 5126,
      "count": 690,
      "max": [
        0.9986842274665833,
        0.99922776222229,
        0.9984496831893921
      ],
      "min": [
        -0.998683512210846,
        -0.9992262721061707,
        -0.998324990272522
      ],
      "type": "VEC3"
    },
    {
      "bufferView": 1,
      "byteOffset": 4432,
      "componentType": 5126,
      "count": 690,
      "max": [
        1.0,
        1.0
      ],
      "min": [
        0.0021807055454701185,
        0.0
      ],
      "type": "VEC2"
    },
    {
      "bufferView": 0,
      "byteOffset": 3552,
      "componentType": 5125,
      "count": 996,
      "type": "SCALAR"
    },
    {
      "bufferView": 2,
      "byteOffset": 29856,
      "componentType": 5126,
      "count": 600,
      "max": [
        0.38176819682121277,
        0.35291787981987,
        0.19393879175186157
      ],
      "min": [
        -0.3974494934082031,
        -0.3941234052181244,
        -0.7292585968971252
      ],
      "type": "VEC3"
    },
    {
      "bufferView": 2,
      "byteOffset": 37056,
      "componentType": 5126,
      "count": 600,
      "max": [
        0.9558432102203369,
        0.9921602606773376,
        0.9910914897918701
      ],
      "min": [
        -0.9454990029335022,
        -0.9801026582717896,
        -1.0
      ],
      "type": "VEC3"
    },
    {
      "bufferView": 1,
      "byteOffset": 9952,
      "componentType": 5126,
      "count": 600,
      "max": [
        1.0,
        1.0
      ],
      "min": [
        0.0,
        0.0
      ],
      "type": "VEC2"
    },
    {
      "bufferView": 0,
      "byteOffset": 7536,
      "componentType": 5125,
      "count": 858,
      "type": "SCALAR"
    },
    {
      "bufferView": 2,
      "byteOffset": 44256,
      "componentType": 5126,
      "count": 816,
      "max": [
        0.02741287462413311,
        0.026533648371696472,
        0.0617675706744194
      ],
      "min": [
        -0.02584921009838581,
        -0.026755664497613907,
        0.04293294996023178
      ],
      "type": "VEC3"
    },
    {
      "bufferView": 2,
      "byteOffset": 54048,
      "componentType": 5126,
      "count": 816,
      "max": [
        0.9930942058563232,
        0.9960778951644897,
        0.9893701672554016
      ],
      "min": [
        -0.9930974245071411,
        -0.9960778951644897,
        -0.9893705248832703
      ],
      "type": "VEC3"
    },
    {
      "bufferView": 1,
      "byteOffset": 14752,
      "componentType": 5126,
      "count": 816,
      "max": [
        0.875,
        1.0
      ],
      "min": [
        0.125,
        0.0
      ],
      "type": "VEC2"
    },
    {
      "bufferView": 0,
      "byteOffset": 10968,
      "componentType": 5125,
      "count": 1224,
      "type": "SCALAR"
    }
  ],
  "asset": {
    "extras": {
      "author": "daniel.2U (https://sketchfab.com/daniel.2U)",
      "license": "CC-BY-4.0 (http://creativecommons.org/licenses/by/4.0/)",
      "source": "https://sketchfab.com/3d-models/trash-can-and-garbage-bag-low-poly-63cdc7dbfa8741d7b65a856f7acca148",
      "title": "Trash Can and Garbage Bag low poly"
    },
    "generator": "Sketchfab-14.64.0",
    "version": "2.0"
  },
  "bufferViews": [
    {
      "buffer": 0,
      "byteLength": 15864,
      "name": "floatBufferViews",
      "target": 34963
    },
    {
      "buffer": 0,
      "byteLength": 21280,
      "byteOffset": 15864,
      "byteStride": 8,
      "name": "floatBufferViews",
      "target": 34962
    },
    {
      "buffer": 0,
      "byteLength": 63840,
      "byteOffset": 37144,
      "byteStride": 12,
      "name": "floatBufferViews",
      "target": 34962
    }
  ],
  "buffers": [
    {
      "byteLength": 100984,
      "uri": "scene.bin"
    }
  ],
  "materials": [
    {
      "doubleSided": true,
      "name": "Material.035",
      "pbrMetallicRoughness": {
        "baseColorFactor": [
          0.304974,
          0.24753,
          0.250569,
          1.0
        ],
        "metallicFactor": 0.0,
        "roughnessFactor": 0.9418707273625306
      }
    },
    {
      "doubleSided": true,
      "name": "Material.036",
      "pbrMetallicRoughness": {
        "baseColorFactor": [
          0.075638,
          0.075638,
          0.075638,
          1.0
        ],
        "metallicFactor": 0.0,
        "roughnessFactor": 0.9830868290317871
      }
    },
    {
      "doubleSided": true,
      "name": "Material.037",
      "pbrMetallicRoughness": {
        "baseColorFactor": [
          0.376248,
          0.307506,
          0.296248,
          1.0
        ],
        "metallicFactor": 0.0,
        "roughnessFactor": 0.9281534092806822
      }
    }
  ],
  "meshes": [
    {
      "name": "Cylinder.596_Material.035_0",
      "primitives": [
        {
          "attributes": {
            "NORMAL": 1,
            "POSITION": 0,
            "TEXCOORD_0": 2
          },
          "indices": 3,
          "material": 0,
          "mode": 4
        }
      ]
    },
    {
      "name": "Cube.1543_Material.035_0",
      "primitives": [
        {
          "attributes": {
            "NORMAL": 5,
            "POSITION": 4,
            "TEXCOORD_0": 6
          },
          "indices": 7,
          "material": 0,
          "mode": 4
        }
      ]
    },
    {
      "name": "Cylinder.597_Material.036_0",
      "primitives": [
        {
          "attributes": {
            "NORMAL": 9,
            "POSITION": 8,
            "TEXCOORD_0": 10
          },
          "indices": 11,
          "material": 1,
          "mode": 4
        }
      ]
    },
    {
      "name": "Cylinder.597_Material.037_0",
      "primitives": [
        {
          "attributes": {
            "NORMAL": 13,
            "POSITION": 12,
            "TEXCOORD_0": 14
          },
          "indices": 15,
          "material": 2,
          "mode": 4
        }
      ]
    }
  ],
  "nodes": [
    {
      "children": [
        1
      ],
      "matrix": [
        1.0,
        0.0,
        0.0,
        0.0,
        0.0,
        2.220446049250313e-16,
        -1.0,
        0.0,
        0.0,
        1.0,
        2.220446049250313e-16,
        0.0,
        0.0,
        0.0,
        0.0,
        1.0
      ],
      "name": "Sketchfab_model"
    },
    {
      "children": [
        2
      ],
      "matrix": [
        0.009999999776482582,
        0.0,
        0.0,
        0.0,
        0.0,
        0.0,
        0.009999999776482582,
        0.0,
        0.0,
        -0.009999999776482582,
        0.0,
        0.0,
        0.0,
        0.0,
        0.0,
        1.0
      ],
      "name": "dd232719934f4d9783a6f11437f06fb2.fbx"
    },
    {
      "children": [
        3,
        5,
        7
      ],
      "name": "RootNode"
    },
    {
      "children": [
        4
      ],
      "matrix": [
        100.0,
        0.0,
        0.0,
        0.0,
        0.0,
        -1.629206793918314e-05,
        -99.99999999999868,
        0.0,
        0.0,
        99.99999999999868,
        -1.629206793918314e-05,
        0.0,
        227.42295837402344,
        39.945030212402344,
        -1458.2210693359375,
        1.0
      ],
      "name": "Cylinder.596"
    },
    {
      "mesh": 0,
      "name": "Cylinder.596_Material.035_0"
    },
    {
      "children": [
        6
      ],
      "matrix": [
        100.0,
        0.0,
        0.0,
        0.0,
        0.0,
        -1.629206793918314e-05,
        -99.99999999999868,
        0.0,
        0.0,
        99.99999999999868,
        -1.629206793918314e-05,
        0.0,
        226.81346130371094,
        80.64230346679688,
        -1460.1090087890625,
        1.0
      ],
      "name": "Cube.1543"
    },
    {
      "mesh": 1,
      "name": "Cube.1543_Material.035_0"
    },
    {
      "children": [
        8,
        9
      ],
      "matrix": [
        100.0,
        0.0,
        0.0,
        0.0,
        0.0,
        -1.629206793918314e-05,
        -99.99999999999868,
        0.0,
        0.0,
        99.99999999999868,
        -1.629206793918314e-05,
        0.0,
        294.53314208984375,
        56.51047134399414,
        -1497.87744140625,
        1.0
      ],
      "name": "Cylinder.597"
    },
    {
      "mesh": 2,
      "name": "Cylinder.597_Material.036_0"
    },
    {
      "mesh": 3,
      "name": "Cylinder.597_Material.037_0"
    }
  ],
  "scene": 0,
  "scenes": [
    {
      "name": "Sketchfab_Scene",
      "nodes": [
        0
      ]
    }
  ]
}
