{
  "accessors": [
    {
      "bufferView": 2,
      "componentType": 5126,
      "count": 74,
      "max": [
        2.051694393157959,
        3.0,
        3.3196542263031006
      ],
      "min": [
        -2.0,
        -3.0,
        -1.1833961009979248
      ],
      "type": "VEC3"
    },
    {
      "bufferView": 2,
      "byteOffset": 888,
      "componentType": 5126,
      "count": 74,
      "max": [
        1.0,
        1.0,
        1.0
      ],
      "min": [
        -1.0,
        -1.0,
        -1.0
      ],
      "type": "VEC3"
    },
    {
      "bufferView": 1,
      "componentType": 5126,
      "count": 74,
      "max": [
        0.875,
        1.0
      ],
      "min": [
        0.125,
        0.0
      ],
      "type": "VEC2"
    },
    {
      "bufferView": 0,
      "componentType": 5125,
      "count": 132,
      "type": "SCALAR"
    },
    {
      "bufferView": 2,
      "byteOffset": 1776,
      "componentType": 5126,
      "count": 99,
      "max": [
        1.3197458982467651,
        1.0,
        2.1939537525177
      ],
      "min": [
        -1.3197458982467651,
        -1.0,
        0.866458535194397
      ],
      "type": "VEC3"
    },
    {
      "bufferView": 2,
      "byteOffset": 2964,
      "componentType": 5126,
      "count": 99,
      "max": [
        0.7444238662719727,
        1.0,
        0.9844549298286438
      ],
      "min": [
        -0.7444238662719727,
        -1.0,
        -0.7444238662719727
      ],
      "type": "VEC3"
    },
    {
      "bufferView": 1,
      "byteOffset": 592,
      "componentType": 5126,
      "count": 99,
      "max": [
        0.6250000596046448,
        0.75
      ],
      "min": [
        0.625,
        0.0
      ],
      "type": "VEC2"
    },
    {
      "bufferView": 0,
      "byteOffset": 528,
      "componentType": 5125,
      "count": 168,
      "type": "SCALAR"
    },
    {
      "bufferView": 2,
      "byteOffset": 4152,
      "componentType": 5126,
      "count": 76,
      "max": [
        1.8568434715270996,
        1.8568426370620728,
        1.4323523044586182
      ],
      "min": [
        -1.856841802597046,
        -1.8568426370620728,
        -1.0
      ],
      "type": "VEC3"
    },
    {
      "bufferView": 2,
      "byteOffset": 5064,
      "componentType": 5126,
      "count": 76,
      "max": [
        1.0,
        1.0,
        1.0
      ],
      "min": [
        -1.0,
        -1.0,
        -1.0
      ],
      "type": "VEC3"
    },
    {
      "bufferView": 1,
      "byteOffset": 1384,
      "componentType": 5126,
      "count": 76,
      "max": [
        0.875,
        1.0
      ],
      "min": [
        0.375,
        0.0
      ],
      "type": "VEC2"
    },
    {
      "bufferView": 0,
      "byteOffset": 1200,
      "componentType": 5125,
      "count": 126,
      "type": "SCALAR"
    },
    {
      "bufferView": 2,
      "byteOffset": 5976,
      "componentType": 5126,
      "count": 40,
      "max": [
        0.21925725042819977,
        0.7372980713844299,
        1.1873012781143188
      ],
      "min": [
        -0.21925725042819977,
        -0.7372980713844299,
        -1.0
      ],
      "type": "VEC3"
    },
    {
      "bufferView": 2,
      "byteOffset": 6456,
      "componentType": 5126,
      "count": 40,
      "max": [
        1.0,
        1.0,
        1.0
      ],
      "min": [
        0.0,
        -1.0,
        -1.0
      ],
      "type": "VEC3"
    },
    {
      "bufferView": 1,
      "byteOffset": 1992,
      "componentType": 5126,
      "count": 40,
      "max": [
        0.875,
        1.0
      ],
      "min": [
        0.0,
        0.0
      ],
      "type": "VEC2"
    },
    {
      "bufferView": 0,
      "byteOffset": 1704,
      "componentType": 5125,
      "count": 60,
      "type": "SCALAR"
    },
    {
      "bufferView": 2,
      "byteOffset": 6936,
      "componentType": 5126,
      "count": 208,
      "max": [
        0.17309464514255524,
        0.17309461534023285,
        1.6259678602218628
      ],
      "min": [
        -0.17309464514255524,
        -0.17309464514255524,
        1.2133253812789917
      ],
      "type": "VEC3"
    },
    {
      "bufferView": 2,
      "byteOffset": 9432,
      "componentType": 5126,
      "count": 208,
      "max": [
        0.9999272227287292,
        0.9999271631240845,
        1.0
      ],
      "min": [
        -0.9999272227287292,
        -0.9999271631240845,
        -0.24641413986682892
      ],
      "type": "VEC3"
    },
    {
      "bufferView": 1,
      "byteOffset": 2312,
      "componentType": 5126,
      "count": 208,
      "max": [
        1.0000001192092896,
        1.0000001192092896
      ],
      "min": [
        0.0,
        0.010000006295740604
      ],
      "type": "VEC2"
    },
    {
      "bufferView": 0,
      "byteOffset": 1944,
      "componentType": 5125,
      "count": 816,
      "type": "SCALAR"
    },
    {
      "bufferView": 2,
      "byteOffset": 11928,
      "componentType": 5126,
      "count": 264,
      "max": [
        1.8660088777542114,
        2.620244264602661,
        2.7466719150543213
      ],
      "min": [
        1.7852760553359985,
        -2.620244264602661,
        1.20176362991333
      ],
      "type": "VEC3"
    },
    {
      "bufferView": 2,
      "byteOffset": 15096,
      "componentType": 5126,
      "count": 264,
      "max": [
        1.0,
        1.0,
        1.0
      ],
      "min": [
        0.0,
        -1.0,
        -1.0
      ],
      "type": "VEC3"
    },
    {
      "bufferView": 1,
      "byteOffset": 3976,
      "componentType": 5126,
      "count": 264,
      "max": [
        0.625,
        0.25
      ],
      "min": [
        0.0,
        0.0
      ],
      "type": "VEC2"
    },
    {
      "bufferView": 0,
      "byteOffset": 5208,
      "componentType": 5125,
      "count": 516,
      "type": "SCALAR"
    },
    {
      "bufferView": 2,
      "byteOffset": 18264,
      "componentType": 5126,
      "count": 30,
      "max": [
        3.5273425579071045,
        0.8812171220779419,
        -1.138346552848816
      ],
      "min": [
        2.3055291175842285,
        -0.8812171220779419,
        -1.7934043407440186
      ],
      "type": "VEC3"
    },
    {
      "bufferView": 2,
      "byteOffset": 18624,
      "componentType": 5126,
      "count": 30,
      "max": [
        1.0,
        1.0,
        1.0
      ],
      "min": [
        0.0,
        -1.0,
        0.0
      ],
      "type": "VEC3"
    },
    {
      "bufferView": 1,
      "byteOffset": 6088,
      "componentType": 5126,
      "count": 30,
      "max": [
        0.41558924317359924,
        0.6666666269302368
      ],
      "min": [
        0.375,
        0.5833333134651184
      ],
      "type": "VEC2"
    },
    {
      "bufferView": 0,
      "byteOffset": 7272,
      "componentType": 5125,
      "count": 54,
      "type": "SCALAR"
    },
    {
      "bufferView": 2,
      "byteOffset": 18984,
      "componentType": 5126,
      "count": 40,
      "max": [
        2.3055291175842285,
        3.4582936763763428,
        -1.138346552848816
      ],
      "min": [
        -2.3055291175842285,
        -3.4582936763763428,
        -1.7934043407440186
      ],
      "type": "VEC3"
    },
    {
      "bufferView": 2,
      "byteOffset": 19464,
      "componentType": 5126,
      "count": 40,
      "max": [
        1.0,
        1.0,
        0.9955452084541321
      ],
      "min": [
        -1.0,
        -1.0,
        0.0
      ],
      "type": "VEC3"
    },
    {
      "bufferView": 1,
      "byteOffset": 6328,
      "componentType": 5126,
      "count": 40,
      "max": [
        0.41558927297592163,
        1.0
      ],
      "min": [
        0.375,
        0.0
      ],
      "type": "VEC2"
    },
    {
      "bufferView": 0,
      "byteOffset": 7488,
      "componentType": 5125,
      "count": 66,
      "type": "SCALAR"
    },
    {
      "bufferView": 2,
      "byteOffset": 19944,
      "componentType": 5126,
      "count": 4,
      "max": [
        0.014434024691581726,
        0.6075016856193542,
        1.0575048923492432
      ],
      "min": [
        0.014434024691581726,
        -0.6075016856193542,
        -1.0
      ],
      "type": "VEC3"
    },
    {
      "bufferView": 2,
      "byteOffset": 19992,
      "componentType": 5126,
      "count": 4,
      "max": [
        1.0,
        0.0,
        0.0
      ],
      "min": [
        1.0,
        0.0,
        0.0
      ],
      "type": "VEC3"
    },
    {
      "bufferView": 1,
      "byteOffset": 6648,
      "componentType": 5126,
      "count": 4,
      "max": [
        0.6101647615432739,
        0.7279945611953735
      ],
      "min": [
        0.375,
        0.5220054388046265
      ],
      "type": "VEC2"
    },
    {
      "bufferView": 0,
      "byteOffset": 7752,
      "componentType": 5125,
      "count": 6,
      "type": "SCALAR"
    },
    {
      "bufferView": 2,
      "byteOffset": 20040,
      "componentType": 5126,
      "count": 32,
      "max": [
        1.7852760553359985,
        2.466604709625244,
        2.5930323600769043
      ],
      "min": [
        1.7852760553359985,
        -2.466604709625244,
        1.3554030656814575
      ],
      "type": "VEC3"
    },
    {
      "bufferView": 2,
      "byteOffset": 20424,
      "componentType": 5126,
      "count": 32,
      "max": [
        1.0,
        0.0,
        0.0
      ],
      "min": [
        1.0,
        0.0,
        0.0
      ],
      "type": "VEC3"
    },
    {
      "bufferView": 1,
      "byteOffset": 6680,
      "componentType": 5126,
      "count": 32,
      "max": [
        0.6001377701759338,
        0.22513777017593384
      ],
      "min": [
        0.39986222982406616,
        0.024862248450517654
      ],
      "type": "VEC2"
    },
    {
      "bufferView": 0,
      "byteOffset": 7776,
      "componentType": 5125,
      "count": 48,
      "type": "SCALAR"
    }
  ],
  "asset": {
    "extras": {
      "author": "crunched3d (https://sketchfab.com/crunched3d)",
      "license": "CC-BY-4.0 (http://creativecommons.org/licenses/by/4.0/)",
      "source": "https://sketchfab.com/3d-models/low-poly-house-a838c62fbf804d79853faf0cfeb6072e",
      "title": "Low Poly House"
    },
    "generator": "Sketchfab-15.70.0",
    "version": "2.0"
  },
  "bufferViews": [
    {
      "buffer": 0,
      "byteLength": 7968,
      "name": "floatBufferViews",
      "target": 34963
    },
    {
      "buffer": 0,
      "byteLength": 6936,
      "byteOffset": 7968,
      "byteStride": 8,
      "name": "floatBufferViews",
      "target": 34962
    },
    {
      "buffer": 0,
      "byteLength": 20808,
      "byteOffset": 14904,
      "byteStride": 12,
      "name": "floatBufferViews",
      "target": 34962
    }
  ],
  "buffers": [
    {
      "byteLength": 35712,
      "uri": "scene.bin"
    }
  ],
  "materials": [
    {
      "doubleSided": true,
      "name": "Main_House",
      "pbrMetallicRoughness": {
        "baseColorFactor": [
          0.974378,
          1.0,
          0.260615,
          1.0
        ],
        "metallicFactor": 0.0,
        "roughnessFactor": 0.789548176694443
      }
    },
    {
      "doubleSided": true,
      "name": "Roof",
      "pbrMetallicRoughness": {
        "baseColorFactor": [
          0.896662,
          0.279149,
          0.0141406,
          1.0
        ],
        "metallicFactor": 0.0
      }
    },
    {
      "doubleSided": true,
      "name": "Chimney",
      "pbrMetallicRoughness": {
        "baseColorFactor": [
          0.0579675,
          0.0579675,
          0.0579675,
          1.0
        ],
        "metallicFactor": 0.0
      }
    },
    {
      "doubleSided": true,
      "name": "Door_Outer",
      "pbrMetallicRoughness": {
        "baseColorFactor": [
          0.263071,
          0.0522067,
          0.0116542,
          1.0
        ],
        "metallicFactor": 0.0
      }
    },
    {
      "doubleSided": true,
      "name": "Door_Knob",
      "pbrMetallicRoughness": {
        "baseColorFactor": [
          0.20367,
          0.01499,
          0.00206302,
          1.0
        ],
        "metallicFactor": 0.0,
        "roughnessFactor": 0.987887210811773
      }
    },
    {
      "doubleSided": true,
      "name": "Window_Frame",
      "pbrMetallicRoughness": {
        "baseColorFactor": [
          0.295189,
          0.0558747,
          0.0136658,
          1.0
        ],
        "metallicFactor": 0.0
      }
    },
    {
      "doubleSided": true,
      "name": "Stairs",
      "pbrMetallicRoughness": {
        "baseColorFactor": [
          0.129068,
          0.164339,
          0.214946,
          1.0
        ],
        "metallicFactor": 0.0
      }
    },
    {
      "doubleSided": true,
      "name": "Base",
      "pbrMetallicRoughness": {
        "baseColorFactor": [
          0.131181,
          0.167064,
          0.217903,
          1.0
        ],
        "metallicFactor": 0.0
      }
    },
    {
      "doubleSided": true,
      "name": "Door_In",
      "pbrMetallicRoughness": {
        "baseColorFactor": [
          0.496356,
          0.0902388,
          0.0292638,
          1.0
        ],
        "metallicFactor": 0.0,
        "roughnessFactor": 0.961500069887742
      }
    },
    {
      "doubleSided": true,
      "name": "Glass",
      "pbrMetallicRoughness": {
        "baseColorFactor": [
          0.0,
          0.374678,
          1.0,
          1.0
        ],
        "metallicFactor": 0.0,
        "roughnessFactor": 0.8924288939315066
      }
    }
  ],
  "meshes": [
    {
      "name": "Main House_Main House_0",
      "primitives": [
        {
          "attributes": {
            "NORMAL": 1,
            "POSITION": 0,
            "TEXCOORD_0": 2
          },
          "indices": 3,
          "material": 0,
          "mode": 4
        }
      ]
    },
    {
      "name": "Roof_Roof_0",
      "primitives": [
        {
          "attributes": {
            "NORMAL": 5,
            "POSITION": 4,
            "TEXCOORD_0": 6
          },
          "indices": 7,
          "material": 1,
          "mode": 4
        }
      ]
    },
    {
      "name": "Chimney_Chimney_0",
      "primitives": [
        {
          "attributes": {
            "NORMAL": 9,
            "POSITION": 8,
            "TEXCOORD_0": 10
          },
          "indices": 11,
          "material": 2,
          "mode": 4
        }
      ]
    },
    {
      "name": "Door Outer_Door Outer_0",
      "primitives": [
        {
          "attributes": {
            "NORMAL": 13,
            "POSITION": 12,
            "TEXCOORD_0": 14
          },
          "indices": 15,
          "material": 3,
          "mode": 4
        }
      ]
    },
    {
      "name": "Door Knob_Door Knob_0",
      "primitives": [
        {
          "attributes": {
            "NORMAL": 17,
            "POSITION": 16,
            "TEXCOORD_0": 18
          },
          "indices": 19,
          "material": 4,
          "mode": 4
        }
      ]
    },
    {
      "name": "Window Frame_Window Frame_0",
      "primitives": [
        {
          "attributes": {
            "NORMAL": 21,
            "POSITION": 20,
            "TEXCOORD_0": 22
          },
          "indices": 23,
          "material": 5,
          "mode": 4
        }
      ]
    },
    {
      "name": "Stairs_Stairs_0",
      "primitives": [
        {
          "attributes": {
            "NORMAL": 25,
            "POSITION": 24,
            "TEXCOORD_0": 26
          },
          "indices": 27,
          "material": 6,
          "mode": 4
        }
      ]
    },
    {
      "name": "Base_Base_0",
      "primitives": [
        {
          "attributes": {
            "NORMAL": 29,
            "POSITION": 28,
            "TEXCOORD_0": 30
          },
          "indices": 31,
          "material": 7,
          "mode": 4
        }
      ]
    },
    {
      "name": "Door In_Door In_0",
      "primitives": [
        {
          "attributes": {
            "NORMAL": 33,
            "POSITION": 32,
            "TEXCOORD_0": 34
          },
          "indices": 35,
          "material": 8,
          "mode": 4
        }
      ]
    },
    {
      "name": "Glass_Glass_0",
      "primitives": [
        {
          "attributes": {
            "NORMAL": 37,
            "POSITION": 36,
            "TEXCOORD_0": 38
          },
          "indices": 39,
          "material": 9,
          "mode": 4
        }
      ]
    }
  ],
  "nodes": [
    {
      "children": [
        1
      ],
      "matrix": [
        -2.220446049250313e-16,
        -5.053215392444312e-16,
        1.0,
        0.0,
        1.0,
        -1.6081226229577296e-16,
        2.2204460492503128e-16,
        0.0,
        1.6081226229577292e-16,
        1.0,
        5.053215392444312e-16,
        0.0,
        0.0,
        0.0,
        0.0,
        1.0
      ],
      "name": "Sketchfab_model"
    },
    {
      "children": [
        2
      ],
      "matrix": [
        0.009999999776482582,
        0.0,
        0.0,
        0.0,
        0.0,
        0.0,
        0.009999999776482582,
        0.0,
        0.0,
        -0.009999999776482582,
        0.0,
        0.0,
        0.0,
        0.0,
        0.0,
        1.0
      ],
      "name": "1eaaacf8cf9e4375aa01f41e2c52afcc.fbx"
    },
    {
      "children": [
        3,
        5,
        7,
        9,
        11,
        13,
        15,
        17,
        19,
        21
      ],
      "name": "RootNode"
    },
    {
      "children": [
        4
      ],
      "matrix": [
        100.0,
        0.0,
        0.0,
        0.0,
        0.0,
        -1.629206793918314e-05,
        -99.99999999999868,
        0.0,
        0.0,
        99.99999999999868,
        -1.629206793918314e-05,
        0.0,
        0.0,
        175.0,
        0.0,
        1.0
      ],
      "name": "Main House"
    },
    {
      "mesh": 0,
      "name": "Main House_Main House_0"
    },
    {
      "children": [
        6
      ],
      "matrix": [
        200.0,
        0.0,
        0.0,
        0.0,
        0.0,
        -5.3798070953444104e-05,
        -330.2102050781206,
        0.0,
        0.0,
        174.9999999999977,
        -2.8511118893570497e-05,
        0.0,
        0.0,
        175.0,
        0.0,
        1.0
      ],
      "name": "Roof"
    },
    {
      "mesh": 1,
      "name": "Roof_Roof_0"
    },
    {
      "children": [
        8
      ],
      "matrix": [
        23.751962661743164,
        0.0,
        0.0,
        0.0,
        0.0,
        -3.869685893740609e-06,
        -23.75196266174285,
        0.0,
        0.0,
        91.4646759033191,
        -1.4901487138522617e-05,
        0.0,
        122.66150665283203,
        452.9518127441406,
        -180.1391143798828,
        1.0
      ],
      "name": "Chimney"
    },
    {
      "mesh": 2,
      "name": "Chimney_Chimney_0"
    },
    {
      "children": [
        10
      ],
      "matrix": [
        100.0,
        0.0,
        0.0,
        0.0,
        0.0,
        -1.629206793918314e-05,
        -99.99999999999868,
        0.0,
        0.0,
        99.99999999999868,
        -1.629206793918314e-05,
        0.0,
        183.24371337890625,
        156.66038513183594,
        0.0,
        1.0
      ],
      "name": "Door Outer"
    },
    {
      "mesh": 3,
      "name": "Door Outer_Door Outer_0"
    },
    {
      "children": [
        12
      ],
      "matrix": [
        -2.2596916326886597e-06,
        -51.69571685791002,
        3.081304472404747e-06,
        0.0,
        -8.42230146136229e-06,
        -3.081304105084586e-06,
        -51.695716857909375,
        0.0,
        51.69570541381763,
        -2.2596916346469228e-06,
        -8.422299459138017e-06,
        0.0,
        121.73087310791016,
        167.12306213378906,
        42.169700622558594,
        1.0
      ],
      "name": "Door Knob"
    },
    {
      "mesh": 4,
      "name": "Door Knob_Door Knob_0"
    },
    {
      "children": [
        14
      ],
      "matrix": [
        100.0,
        0.0,
        0.0,
        0.0,
        0.0,
        -1.629206793918314e-05,
        -99.99999999999868,
        0.0,
        0.0,
        99.99999999999868,
        -1.629206793918314e-05,
        0.0,
        0.0,
        0.0,
        0.0,
        1.0
      ],
      "name": "Window Frame"
    },
    {
      "mesh": 5,
      "name": "Window Frame_Window Frame_0"
    },
    {
      "children": [
        16
      ],
      "matrix": [
        100.0,
        0.0,
        0.0,
        0.0,
        0.0,
        -1.629206793918314e-05,
        -99.99999999999868,
        0.0,
        0.0,
        99.99999999999868,
        -1.629206793918314e-05,
        0.0,
        0.0,
        175.0,
        0.0,
        1.0
      ],
      "name": "Stairs"
    },
    {
      "mesh": 6,
      "name": "Stairs_Stairs_0"
    },
    {
      "children": [
        18
      ],
      "matrix": [
        100.0,
        0.0,
        0.0,
        0.0,
        0.0,
        -1.629206793918314e-05,
        -99.99999999999868,
        0.0,
        0.0,
        99.99999999999868,
        -1.629206793918314e-05,
        0.0,
        0.0,
        175.0,
        0.0,
        1.0
      ],
      "name": "Base"
    },
    {
      "mesh": 7,
      "name": "Base_Base_0"
    },
    {
      "children": [
        20
      ],
      "matrix": [
        100.0,
        0.0,
        0.0,
        0.0,
        0.0,
        -1.629206793918314e-05,
        -99.99999999999868,
        0.0,
        0.0,
        99.99999999999868,
        -1.629206793918314e-05,
        0.0,
        183.24371337890625,
        156.66038513183594,
        0.0,
        1.0
      ],
      "name": "Door In"
    },
    {
      "mesh": 8,
      "name": "Door In_Door In_0"
    },
    {
      "children": [
        22
      ],
      "matrix": [
        100.0,
        0.0,
        0.0,
        0.0,
        0.0,
        -1.629206793918314e-05,
        -99.99999999999868,
        0.0,
        0.0,
        99.99999999999868,
        -1.629206793918314e-05,
        0.0,
        0.0,
        0.0,
        0.0,
        1.0
      ],
      "name": "Glass"
    },
    {
      "mesh": 9,
      "name": "Glass_Glass_0"
    }
  ],
  "scene": 0,
  "scenes": [
    {
      "name": "Sketchfab_Scene",
      "nodes": [
        0
      ]
    }
  ]
}
