{
  "accessors": [
    {
      "bufferView": 2,
      "componentType": 5126,
      "count": 1200,
      "max": [
        0.9510578513145447,
        1.0,
        2.334049701690674
      ],
      "min": [
        -1.129753828048706,
        -1.148651123046875,
        -1.8534061908721924
      ],
      "type": "VEC3"
    },
    {
      "bufferView": 2,
      "byteOffset": 14400,
      "componentType": 5126,
      "count": 1200,
      "max": [
        0.9920774698257446,
        0.9435240626335144,
        0.9530461430549622
      ],
      "min": [
        -0.9920774698257446,
        -0.9435244202613831,
        -0.9530461430549622
      ],
      "type": "VEC3"
    },
    {
      "bufferView": 1,
      "componentType": 5126,
      "count": 1200,
      "max": [
        1.0,
        0.47238200902938843
      ],
      "min": [
        0.0,
        0.0
      ],
      "type": "VEC2"
    },
    {
      "bufferView": 0,
      "componentType": 5125,
      "count": 1200,
      "type": "SCALAR"
    },
    {
      "bufferView": 2,
      "byteOffset": 28800,
      "componentType": 5126,
      "count": 1440,
      "max": [
        0.9510578513145447,
        1.3620171546936035,
        2.257687568664551
      ],
      "min": [
        -0.9510578513145447,
        -1.136878252029419,
        -1.9160609245300293
      ],
      "type": "VEC3"
    },
    {
      "bufferView": 2,
      "byteOffset": 46080,
      "componentType": 5126,
      "count": 1440,
      "max": [
        0.9932906627655029,
        0.9490231871604919,
        0.9500802755355835
      ],
      "min": [
        -0.9932906627655029,
        -0.9490231871604919,
        -0.9500802755355835
      ],
      "type": "VEC3"
    },
    {
      "bufferView": 1,
      "byteOffset": 9600,
      "componentType": 5126,
      "count": 1440,
      "max": [
        1.0,
        0.47238200902938843
      ],
      "min": [
        0.0,
        0.0
      ],
      "type": "VEC2"
    },
    {
      "bufferView": 0,
      "byteOffset": 4800,
      "componentType": 5125,
      "count": 1440,
      "type": "SCALAR"
    },
    {
      "bufferView": 2,
      "byteOffset": 63360,
      "componentType": 5126,
      "count": 1776,
      "max": [
        1.105211853981018,
        2.5475261211395264,
        3.3151280879974365
      ],
      "min": [
        -1.178500771522522,
        -1.2020741701126099,
        -4.166985988616943
      ],
      "type": "VEC3"
    },
    {
      "bufferView": 2,
      "byteOffset": 84672,
      "componentType": 5126,
      "count": 1776,
      "max": [
        0.9963159561157227,
        0.9482666254043579,
        0.95512455701828
      ],
      "min": [
        -0.9963159561157227,
        -0.9482666254043579,
        -0.9551246762275696
      ],
      "type": "VEC3"
    },
    {
      "bufferView": 1,
      "byteOffset": 21120,
      "componentType": 5126,
      "count": 1776,
      "max": [
        1.0,
        0.47238200902938843
      ],
      "min": [
        0.0,
        0.0
      ],
      "type": "VEC2"
    },
    {
      "bufferView": 0,
      "byteOffset": 10560,
      "componentType": 5125,
      "count": 1776,
      "type": "SCALAR"
    },
    {
      "bufferView": 2,
      "byteOffset": 105984,
      "componentType": 5126,
      "count": 952,
      "max": [
        0.9922817945480347,
        1.9548125267028809,
        2.868117570877075
      ],
      "min": [
        -1.2262996435165405,
        -1.290529727935791,
        -3.290966749191284
      ],
      "type": "VEC3"
    },
    {
      "bufferView": 2,
      "byteOffset": 117408,
      "componentType": 5126,
      "count": 952,
      "max": [
        0.9943175315856934,
        0.9589558243751526,
        0.9435215592384338
      ],
      "min": [
        -0.9920774698257446,
        -0.9589557647705078,
        -0.9645770192146301
      ],
      "type": "VEC3"
    },
    {
      "bufferView": 1,
      "byteOffset": 35328,
      "componentType": 5126,
      "count": 952,
      "max": [
        1.0,
        0.47238200902938843
      ],
      "min": [
        0.0,
        0.0
      ],
      "type": "VEC2"
    },
    {
      "bufferView": 0,
      "byteOffset": 17664,
      "componentType": 5125,
      "count": 954,
      "type": "SCALAR"
    }
  ],
  "asset": {
    "extras": {
      "author": "jesus397 (https://sketchfab.com/jesus397)",
      "license": "CC-BY-4.0 (http://creativecommons.org/licenses/by/4.0/)",
      "source": "https://sketchfab.com/3d-models/low-poly-clouds-f653f67c8ea34b7b8f3dae162b7fff0f",
      "title": "Low poly clouds"
    },
    "generator": "Sketchfab-13.88.0",
    "version": "2.0"
  },
  "bufferViews": [
    {
      "buffer": 0,
      "byteLength": 21480,
      "name": "floatBufferViews",
      "target": 34963
    },
    {
      "buffer": 0,
      "byteLength": 42944,
      "byteOffset": 21480,
      "byteStride": 8,
      "name": "floatBufferViews",
      "target": 34962
    },
    {
      "buffer": 0,
      "byteLength": 128832,
      "byteOffset": 64424,
      "byteStride": 12,
      "name": "floatBufferViews",
      "target": 34962
    }
  ],
  "buffers": [
    {
      "byteLength": 193256,
      "uri": "scene.bin"
    }
  ],
  "materials": [
    {
      "doubleSided": true,
      "name": "Cloud_Mat",
      "pbrMetallicRoughness": {
        "baseColorFactor": [
          0.8,
          0.8,
          0.8,
          1.0
        ],
        "metallicFactor": 0.0,
        "roughnessFactor": 0.0
      }
    }
  ],
  "meshes": [
    {
      "name": "Object_0",
      "primitives": [
        {
          "attributes": {
            "NORMAL": 1,
            "POSITION": 0,
            "TEXCOORD_0": 2
          },
          "indices": 3,
          "material": 0,
          "mode": 4
        }
      ]
    },
    {
      "name": "Object_1",
      "primitives": [
        {
          "attributes": {
            "NORMAL": 5,
            "POSITION": 4,
            "TEXCOORD_0": 6
          },
          "indices": 7,
          "material": 0,
          "mode": 4
        }
      ]
    },
    {
      "name": "Object_2",
      "primitives": [
        {
          "attributes": {
            "NORMAL": 9,
            "POSITION": 8,
            "TEXCOORD_0": 10
          },
          "indices": 11,
          "material": 0,
          "mode": 4
        }
      ]
    },
    {
      "name": "Object_3",
      "primitives": [
        {
          "attributes": {
            "NORMAL": 13,
            "POSITION": 12,
            "TEXCOORD_0": 14
          },
          "indices": 15,
          "material": 0,
          "mode": 4
        }
      ]
    }
  ],
  "nodes": [
    {
      "children": [
        1
      ],
      "matrix": [
        1.0,
        0.0,
        0.0,
        0.0,
        0.0,
        2.220446049250313e-16,
        -1.0,
        0.0,
        0.0,
        1.0,
        2.220446049250313e-16,
        0.0,
        0.0,
        0.0,
        0.0,
        1.0
      ],
      "name": "Sketchfab_model"
    },
    {
      "children": [
        2
      ],
      "name": "root"
    },
    {
      "children": [
        3,
        5,
        7,
        9
      ],
      "matrix": [
        1.0,
        0.0,
        0.0,
        0.0,
        0.0,
        2.220446049250313e-16,
        1.0,
        0.0,
        0.0,
        -1.0,
        2.220446049250313e-16,
        0.0,
        0.0,
        0.0,
        0.0,
        1.0
      ],
      "name": "GLTF_SceneRootNode"
    },
    {
      "children": [
        4
      ],
      "matrix": [
        4.328929424285889,
        0.0,
        0.0,
        0.0,
        0.0,
        4.328929424285889,
        0.0,
        0.0,
        0.0,
        0.0,
        4.783946990966797,
        0.0,
        0.0,
        0.0,
        0.0,
        1.0
      ],
      "name": "Cloud_1_1"
    },
    {
      "mesh": 0,
      "name": "Object_4"
    },
    {
      "children": [
        6
      ],
      "matrix": [
        4.804304599761963,
        0.0,
        0.0,
        0.0,
        0.0,
        4.804304599761963,
        0.0,
        0.0,
        0.0,
        0.0,
        5.167212963104248,
        0.0,
        0.0,
        16.247329711914063,
        0.0,
        1.0
      ],
      "name": "Cloud_2_2"
    },
    {
      "mesh": 1,
      "name": "Object_6"
    },
    {
      "children": [
        8
      ],
      "matrix": [
        3.7894296646118164,
        0.0,
        0.0,
        0.0,
        0.0,
        3.379314661026001,
        0.0,
        0.0,
        0.0,
        0.0,
        3.8323442935943604,
        0.0,
        0.0,
        32.21318817138672,
        0.0,
        1.0
      ],
      "name": "Cloud_3_3"
    },
    {
      "mesh": 2,
      "name": "Object_8"
    },
    {
      "children": [
        10
      ],
      "matrix": [
        3.6472020149230957,
        0.0,
        0.0,
        0.0,
        0.0,
        3.6472020149230957,
        0.0,
        0.0,
        0.0,
        0.0,
        3.6472020149230957,
        0.0,
        0.0,
        51.84345626831055,
        0.0,
        1.0
      ],
      "name": "Cloud_4_4"
    },
    {
      "mesh": 3,
      "name": "Object_10"
    }
  ],
  "scene": 0,
  "scenes": [
    {
      "name": "Sketchfab_Scene",
      "nodes": [
        0
      ]
    }
  ]
}
