{
  "accessors": [
    {
      "bufferView": 2,
      "componentType": 5126,
      "count": 602,
      "max": [
        0.4240000247955322,
        0.6910000443458557,
        0.0
      ],
      "min": [
        0.06400000303983688,
        -0.009000003337860107,
        -0.058519136160612106
      ],
      "type": "VEC3"
    },
    {
      "bufferView": 2,
      "byteOffset": 7224,
      "componentType": 5126,
      "count": 602,
      "max": [
        1.0,
        0.9999930262565613,
        1.0
      ],
      "min": [
        -0.9999196529388428,
        -0.9999153017997742,
        -1.0
      ],
      "type": "VEC3"
    },
    {
      "bufferView": 1,
      "componentType": 5126,
      "count": 602,
      "max": [
        1.0,
        0.0
      ],
      "min": [
        0.0,
        0.0
      ],
      "type": "VEC2"
    },
    {
      "bufferView": 0,
      "componentType": 5125,
      "count": 1752,
      "type": "SCALAR"
    },
    {
      "bufferView": 2,
      "byteOffset": 14448,
      "componentType": 5126,
      "count": 67,
      "max": [
        1.2112030982971191,
        1.8022594451904297,
        -0.05851912498474121
      ],
      "min": [
        -4.874302864074707,
        -0.44003862142562866,
        -2.058519124984741
      ],
      "type": "VEC3"
    },
    {
      "bufferView": 2,
      "byteOffset": 15252,
      "componentType": 5126,
      "count": 67,
      "max": [
        1.0,
        9.405712830812263e-07,
        1.0
      ],
      "min": [
        -1.0,
        -9.970920444857256e-08,
        -1.0
      ],
      "type": "VEC3"
    },
    {
      "bufferView": 1,
      "byteOffset": 4816,
      "componentType": 5126,
      "count": 67,
      "max": [
        0.875,
        1.0
      ],
      "min": [
        0.375,
        0.0
      ],
      "type": "VEC2"
    },
    {
      "bufferView": 0,
      "byteOffset": 7008,
      "componentType": 5125,
      "count": 120,
      "type": "SCALAR"
    },
    {
      "bufferView": 2,
      "byteOffset": 16056,
      "componentType": 5126,
      "count": 158,
      "max": [
        1.4436111450195313,
        1.8822696208953857,
        0.05109560489654541
      ],
      "min": [
        -5.106710910797119,
        -0.5968078970909119,
        -2.1681337356567383
      ],
      "type": "VEC3"
    },
    {
      "bufferView": 2,
      "byteOffset": 17952,
      "componentType": 5126,
      "count": 158,
      "max": [
        1.0,
        1.0,
        1.0
      ],
      "min": [
        -1.0,
        -1.0,
        -1.0
      ],
      "type": "VEC3"
    },
    {
      "bufferView": 1,
      "byteOffset": 5352,
      "componentType": 5126,
      "count": 158,
      "max": [
        0.875,
        1.0
      ],
      "min": [
        0.125,
        0.0
      ],
      "type": "VEC2"
    },
    {
      "bufferView": 0,
      "byteOffset": 7488,
      "componentType": 5125,
      "count": 276,
      "type": "SCALAR"
    },
    {
      "bufferView": 2,
      "byteOffset": 19848,
      "componentType": 5126,
      "count": 370,
      "max": [
        -3.6038784980773926,
        0.6910000443458557,
        -0.0003943406045436859
      ],
      "min": [
        -4.035878658294678,
        -1.5893235172370623e-08,
        -0.05851864814758301
      ],
      "type": "VEC3"
    },
    {
      "bufferView": 2,
      "byteOffset": 24288,
      "componentType": 5126,
      "count": 370,
      "max": [
        1.0,
        1.0,
        1.0
      ],
      "min": [
        -1.0,
        -1.0,
        -1.0
      ],
      "type": "VEC3"
    },
    {
      "bufferView": 1,
      "byteOffset": 6616,
      "componentType": 5126,
      "count": 370,
      "max": [
        1.0,
        0.0
      ],
      "min": [
        0.0,
        0.0
      ],
      "type": "VEC2"
    },
    {
      "bufferView": 0,
      "byteOffset": 8592,
      "componentType": 5125,
      "count": 1056,
      "type": "SCALAR"
    },
    {
      "bufferView": 2,
      "byteOffset": 28728,
      "componentType": 5126,
      "count": 360,
      "max": [
        -1.55523681640625,
        0.9699163436889648,
        0.02319861203432083
      ],
      "min": [
        -2.048826217651367,
        0.2054479569196701,
        -0.05198699235916138
      ],
      "type": "VEC3"
    },
    {
      "bufferView": 2,
      "byteOffset": 33048,
      "componentType": 5126,
      "count": 360,
      "max": [
        1.0,
        1.0,
        1.0
      ],
      "min": [
        -1.0,
        -1.0,
        -1.0
      ],
      "type": "VEC3"
    },
    {
      "bufferView": 1,
      "byteOffset": 9576,
      "componentType": 5126,
      "count": 360,
      "max": [
        1.0,
        0.0
      ],
      "min": [
        0.0,
        0.0
      ],
      "type": "VEC2"
    },
    {
      "bufferView": 0,
      "byteOffset": 12816,
      "componentType": 5125,
      "count": 552,
      "type": "SCALAR"
    }
  ],
  "asset": {
    "extras": {
      "author": "dabblack (https://sketchfab.com/dabblack)",
      "license": "CC-BY-4.0 (http://creativecommons.org/licenses/by/4.0/)",
      "source": "https://sketchfab.com/3d-models/winner-podium-19f3b4ebbd47472a8995b4ca32aa95ea",
      "title": "Winner Podium"
    },
    "generator": "Sketchfab-15.77.0",
    "version": "2.0"
  },
  "bufferViews": [
    {
      "buffer": 0,
      "byteLength": 15024,
      "name": "floatBufferViews",
      "target": 34963
    },
    {
      "buffer": 0,
      "byteLength": 12456,
      "byteOffset": 15024,
      "byteStride": 8,
      "name": "floatBufferViews",
      "target": 34962
    },
    {
      "buffer": 0,
      "byteLength": 37368,
      "byteOffset": 27480,
      "byteStride": 12,
      "name": "floatBufferViews",
      "target": 34962
    }
  ],
  "buffers": [
    {
      "byteLength": 64848,
      "uri": "scene.bin"
    }
  ],
  "materials": [
    {
      "doubleSided": true,
      "name": "Material.005",
      "pbrMetallicRoughness": {
        "baseColorFactor": [
          0.102744,
          0.0974458,
          0.108206,
          1.0
        ],
        "metallicFactor": 0.0,
        "roughnessFactor": 0.0
      }
    },
    {
      "doubleSided": true,
      "name": "Material.001",
      "pbrMetallicRoughness": {
        "baseColorFactor": [
          0.8,
          0.8,
          0.8,
          1.0
        ],
        "metallicFactor": 0.0,
        "roughnessFactor": 0.8211145618000169
      }
    },
    {
      "doubleSided": true,
      "name": "Material.002",
      "pbrMetallicRoughness": {
        "baseColorFactor": [
          0.030818,
          0.030818,
          0.030818,
          1.0
        ],
        "metallicFactor": 0.0,
        "roughnessFactor": 0.04684114252599447
      }
    },
    {
      "doubleSided": true,
      "name": "Material.004",
      "pbrMetallicRoughness": {
        "baseColorFactor": [
          0.102744,
          0.0974458,
          0.108206,
          1.0
        ],
        "metallicFactor": 0.0
      }
    },
    {
      "doubleSided": true,
      "name": "Material.006",
      "pbrMetallicRoughness": {
        "baseColorFactor": [
          0.102744,
          0.0974458,
          0.108206,
          1.0
        ],
        "metallicFactor": 0.0,
        "roughnessFactor": 0.0
      }
    }
  ],
  "meshes": [
    {
      "name": "Text.002_Material.005_0",
      "primitives": [
        {
          "attributes": {
            "NORMAL": 1,
            "POSITION": 0,
            "TEXCOORD_0": 2
          },
          "indices": 3,
          "material": 0,
          "mode": 4
        }
      ]
    },
    {
      "name": "Text.002_Material.001_0",
      "primitives": [
        {
          "attributes": {
            "NORMAL": 5,
            "POSITION": 4,
            "TEXCOORD_0": 6
          },
          "indices": 7,
          "material": 1,
          "mode": 4
        }
      ]
    },
    {
      "name": "Text.002_Material.002_0",
      "primitives": [
        {
          "attributes": {
            "NORMAL": 9,
            "POSITION": 8,
            "TEXCOORD_0": 10
          },
          "indices": 11,
          "material": 2,
          "mode": 4
        }
      ]
    },
    {
      "name": "Text.002_Material.004_0",
      "primitives": [
        {
          "attributes": {
            "NORMAL": 13,
            "POSITION": 12,
            "TEXCOORD_0": 14
          },
          "indices": 15,
          "material": 3,
          "mode": 4
        }
      ]
    },
    {
      "name": "Text.002_Material.006_0",
      "primitives": [
        {
          "attributes": {
            "NORMAL": 17,
            "POSITION": 16,
            "TEXCOORD_0": 18
          },
          "indices": 19,
          "material": 4,
          "mode": 4
        }
      ]
    }
  ],
  "nodes": [
    {
      "children": [
        1
      ],
      "matrix": [
        1.0,
        0.0,
        0.0,
        0.0,
        0.0,
        2.220446049250313e-16,
        -1.0,
        0.0,
        0.0,
        1.0,
        2.220446049250313e-16,
        0.0,
        0.0,
        0.0,
        0.0,
        1.0
      ],
      "name": "Sketchfab_model"
    },
    {
      "children": [
        2
      ],
      "matrix": [
        0.009999999776482582,
        0.0,
        0.0,
        0.0,
        0.0,
        0.0,
        0.009999999776482582,
        0.0,
        0.0,
        -0.009999999776482582,
        0.0,
        0.0,
        0.0,
        0.0,
        0.0,
        1.0
      ],
      "name": "de2e2080a97a442db651ae71094887d6.fbx"
    },
    {
      "children": [
        3
      ],
      "name": "RootNode"
    },
    {
      "children": [
        4,
        5,
        6,
        7,
        8
      ],
      "matrix": [
        7.549789948768648e-06,
        0.0,
        99.99999999999972,
        0.0,
        -4.371139539216514e-06,
        99.9999999999999,
        3.3001185376880853e-13,
        0.0,
        -99.99999999999962,
        -4.371139539216526e-06,
        7.549789948768648e-06,
        0.0,
        -105.85191345214844,
        67.7938003540039,
        183.1549835205078,
        1.0
      ],
      "name": "Text.002"
    },
    {
      "mesh": 0,
      "name": "Text.002_Material.005_0"
    },
    {
      "mesh": 1,
      "name": "Text.002_Material.001_0"
    },
    {
      "mesh": 2,
      "name": "Text.002_Material.002_0"
    },
    {
      "mesh": 3,
      "name": "Text.002_Material.004_0"
    },
    {
      "mesh": 4,
      "name": "Text.002_Material.006_0"
    }
  ],
  "scene": 0,
  "scenes": [
    {
      "name": "Sketchfab_Scene",
      "nodes": [
        0
      ]
    }
  ]
}
