{
  "accessors": [
    {
      "bufferView": 2,
      "componentType": 5126,
      "count": 90,
      "max": [
        4.0,
        2.0,
        2.0
      ],
      "min": [
        -83.92750549316406,
        -2.0,
        1.1146125793457031
      ],
      "type": "VEC3"
    },
    {
      "bufferView": 2,
      "byteOffset": 1080,
      "componentType": 5126,
      "count": 90,
      "max": [
        0.5773502588272095,
        0.5773502588272095,
        0.5773502588272095
      ],
      "min": [
        -0.5773502588272095,
        -0.5773502588272095,
        -0.5773502588272095
      ],
      "type": "VEC3"
    },
    {
      "bufferView": 1,
      "componentType": 5126,
      "count": 90,
      "max": [
        1.0,
        1.0
      ],
      "min": [
        0.0,
        0.0
      ],
      "type": "VEC2"
    },
    {
      "bufferView": 0,
      "componentType": 5125,
      "count": 150,
      "type": "SCALAR"
    },
    {
      "bufferView": 2,
      "byteOffset": 2160,
      "componentType": 5126,
      "count": 12,
      "max": [
        50.0,
        25.0,
        2.0
      ],
      "min": [
        -50.0,
        -25.0,
        0.0
      ],
      "type": "VEC3"
    },
    {
      "bufferView": 2,
      "byteOffset": 2304,
      "componentType": 5126,
      "count": 12,
      "max": [
        0.0,
        1.0,
        1.0
      ],
      "min": [
        0.0,
        -1.0,
        0.0
      ],
      "type": "VEC3"
    },
    {
      "bufferView": 1,
      "byteOffset": 720,
      "componentType": 5126,
      "count": 12,
      "max": [
        1.0,
        1.0
      ],
      "min": [
        0.0,
        0.0
      ],
      "type": "VEC2"
    },
    {
      "bufferView": 0,
      "byteOffset": 600,
      "componentType": 5125,
      "count": 18,
      "type": "SCALAR"
    },
    {
      "bufferView": 2,
      "byteOffset": 2448,
      "componentType": 5126,
      "count": 8,
      "max": [
        50.0,
        25.0,
        2.0
      ],
      "min": [
        -50.0,
        -25.0,
        2.0
      ],
      "type": "VEC3"
    },
    {
      "bufferView": 2,
      "byteOffset": 2544,
      "componentType": 5126,
      "count": 8,
      "max": [
        0.0,
        0.7071068286895752,
        1.0
      ],
      "min": [
        0.0,
        -0.7071068286895752,
        0.7071068286895752
      ],
      "type": "VEC3"
    },
    {
      "bufferView": 1,
      "byteOffset": 816,
      "componentType": 5126,
      "count": 8,
      "max": [
        1.0,
        1.0
      ],
      "min": [
        0.0,
        0.0
      ],
      "type": "VEC2"
    },
    {
      "bufferView": 0,
      "byteOffset": 672,
      "componentType": 5125,
      "count": 12,
      "type": "SCALAR"
    }
  ],
  "asset": {
    "extras": {
      "author": "Milan (https://sketchfab.com/milanfonken)",
      "license": "CC-BY-NC-ND-4.0 (http://creativecommons.org/licenses/by-nc-nd/4.0/)",
      "source": "https://sketchfab.com/3d-models/lowpoly-road-31b1a923cea345ce8a5480712e404e9b",
      "title": "Lowpoly Road"
    },
    "generator": "Sketchfab-12.65.0",
    "version": "2.0"
  },
  "bufferViews": [
    {
      "buffer": 0,
      "byteLength": 720,
      "name": "floatBufferViews",
      "target": 34963
    },
    {
      "buffer": 0,
      "byteLength": 880,
      "byteOffset": 720,
      "byteStride": 8,
      "name": "floatBufferViews",
      "target": 34962
    },
    {
      "buffer": 0,
      "byteLength": 2640,
      "byteOffset": 1600,
      "byteStride": 12,
      "name": "floatBufferViews",
      "target": 34962
    }
  ],
  "buffers": [
    {
      "byteLength": 4240,
      "uri": "scene.bin"
    }
  ],
  "materials": [
    {
      "doubleSided": true,
      "name": "RoadRim",
      "pbrMetallicRoughness": {
        "metallicFactor": 0.0,
        "roughnessFactor": 0.8929713596
      }
    },
    {
      "doubleSided": true,
      "name": "RoadBase",
      "pbrMetallicRoughness": {
        "baseColorFactor": [
          0.0509804,
          0.0509804,
          0.105882,
          1.0
        ],
        "metallicFactor": 0.0,
        "roughnessFactor": 0.8929713596
      }
    }
  ],
  "meshes": [
    {
      "name": "Box007_RoadRim_0",
      "primitives": [
        {
          "attributes": {
            "NORMAL": 1,
            "POSITION": 0,
            "TEXCOORD_0": 2
          },
          "indices": 3,
          "material": 0,
          "mode": 4
        }
      ]
    },
    {
      "name": "Box002_RoadBase_0",
      "primitives": [
        {
          "attributes": {
            "NORMAL": 5,
            "POSITION": 4,
            "TEXCOORD_0": 6
          },
          "indices": 7,
          "material": 1,
          "mode": 4
        }
      ]
    },
    {
      "name": "Box002_RoadRim_0",
      "primitives": [
        {
          "attributes": {
            "NORMAL": 9,
            "POSITION": 8,
            "TEXCOORD_0": 10
          },
          "indices": 11,
          "material": 0,
          "mode": 4
        }
      ]
    }
  ],
  "nodes": [
    {
      "children": [
        1
      ],
      "matrix": [
        1.0,
        0.0,
        0.0,
        0.0,
        0.0,
        2.220446049250313e-16,
        -1.0,
        0.0,
        0.0,
        1.0,
        2.220446049250313e-16,
        0.0,
        0.0,
        0.0,
        0.0,
        1.0
      ],
      "name": "Sketchfab_model"
    },
    {
      "children": [
        2
      ],
      "matrix": [
        1.0,
        0.0,
        0.0,
        0.0,
        0.0,
        0.0,
        1.0,
        0.0,
        0.0,
        -1.0,
        0.0,
        0.0,
        0.0,
        0.0,
        0.0,
        1.0
      ],
      "name": "3481ad2f81cb44fdb506ef0bf7f80803.fbx"
    },
    {
      "children": [
        3
      ],
      "name": "RootNode"
    },
    {
      "children": [
        4,
        6
      ],
      "matrix": [
        1.0,
        0.0,
        0.0,
        0.0,
        0.0,
        2.220446049250313e-16,
        -1.0,
        0.0,
        0.0,
        1.0,
        2.220446049250313e-16,
        0.0,
        0.0,
        0.0,
        0.0,
        1.0
      ],
      "name": "Group001"
    },
    {
      "children": [
        5
      ],
      "matrix": [
        2.5399999618530273,
        0.0,
        0.0,
        0.0,
        0.0,
        2.5399999618530273,
        0.0,
        0.0,
        0.0,
        0.0,
        2.5399999618530273,
        0.0,
        101.54796600341797,
        0.0,
        -1.8649539947509766,
        1.0
      ],
      "name": "Box007"
    },
    {
      "mesh": 0,
      "name": "Box007_RoadRim_0"
    },
    {
      "children": [
        7,
        8
      ],
      "matrix": [
        2.5399999618530273,
        0.0,
        0.0,
        0.0,
        0.0,
        2.5399999618530273,
        0.0,
        0.0,
        0.0,
        0.0,
        2.5399999618530273,
        0.0,
        0.0,
        0.0,
        -3.215045928955078,
        1.0
      ],
      "name": "Box002"
    },
    {
      "mesh": 1,
      "name": "Box002_RoadBase_0"
    },
    {
      "mesh": 2,
      "name": "Box002_RoadRim_0"
    }
  ],
  "scene": 0,
  "scenes": [
    {
      "name": "Sketchfab_Scene",
      "nodes": [
        0
      ]
    }
  ]
}
